<svg fill="none" height="360" viewBox="0 0 360 360" width="360" xmlns="http://www.w3.org/2000/svg"><path d="m0 132.02c0-46.6982 0-70.0474 9.2321-87.8199 7.7798-14.9767 19.9913-27.1882 34.968-34.968 17.7725-9.2321 41.1217-9.2321 87.8199-9.2321h95.96c46.698 0 70.047 0 87.82 9.2321 14.977 7.7798 27.188 19.9913 34.968 34.968 9.232 17.7725 9.232 41.1217 9.232 87.8199v95.96c0 46.698 0 70.047-9.232 87.82-7.78 14.977-19.991 27.188-34.968 34.968-17.773 9.232-41.122 9.232-87.82 9.232h-95.96c-46.6982 0-70.0474 0-87.8199-9.232-14.9767-7.78-27.1882-19.991-34.968-34.968-9.2321-17.773-9.2321-41.122-9.2321-87.82z" fill="#ecd6d6"/><g fill="#e35454"><path d="m58.5012 150.771c.5737 3.585 2.9043 6.633 6.9918 9.143 4.0875 2.438 10.0035 3.657 17.7482 3.657 5.8086 0 10.8641-.609 15.1668-1.829 4.303-1.219 6.454-3.083 6.454-5.593 0-3.083-3.621-5.414-10.8642-6.992l-27.7519-6.346c-14.9874-3.442-22.4811-10.255-22.4811-20.437 0-7.458 3.5138-13.052 10.5414-16.781s15.8479-5.593 26.461-5.593c11.3303 0 20.6528 2.151 27.9668 6.454 7.386 4.231 11.51 10.254 12.37 18.071l-18.501.753c-.645-3.012-2.9043-5.594-6.7766-7.745-3.8007-2.151-9.0714-3.227-15.8121-3.227-4.8763 0-8.8921.61-12.0473 1.829-3.0836 1.219-4.6253 2.904-4.6253 5.055 0 3.012 3.4779 5.307 10.4338 6.885l25.7081 5.593c8.3904 1.864 14.6284 4.374 18.7164 7.529 4.159 3.156 6.239 7.602 6.239 13.339 0 7.816-3.693 13.66-11.079 17.533-7.315 3.872-17.3543 5.808-30.1188 5.808-27.3215 0-41.7353-8.856-43.2412-26.568z"/><path d="m226.469 176.586h-21.083l-6.777-6.023c-7.744 4.876-17.354 7.314-28.827 7.314-11.761 0-20.509-1.793-26.246-5.378-5.737-3.657-8.605-8.498-8.605-14.521 0-2.08.358-4.016 1.075-5.809.789-1.864 1.721-3.442 2.797-4.733 1.147-1.29 2.761-2.617 4.84-3.98 2.152-1.434 4.124-2.617 5.916-3.549 1.793-.933 4.195-2.116 7.207-3.55l2.259-1.076-1.398-1.183c-4.088-3.585-7.064-6.669-8.928-9.25-1.865-2.654-2.797-5.486-2.797-8.498 0-4.948 2.51-8.892 7.53-11.832 5.02-3.012 11.76-4.518 20.222-4.518 8.677 0 15.418 1.578 20.222 4.733 4.877 3.083 7.315 7.529 7.315 13.338 0 3.657-1.219 6.848-3.657 9.573-2.367 2.725-6.383 5.45-12.048 8.175l-3.442 1.721 16.78 14.737c2.152-3.227 3.658-6.956 4.518-11.187h14.306c-1.721 7.816-4.661 14.485-8.82 20.007zm-55.612-48.942 1.506 1.399 3.335-1.614c6.31-2.94 9.466-5.773 9.466-8.498 0-1.936-1.076-3.442-3.227-4.517-2.152-1.148-4.913-1.721-8.283-1.721-3.227 0-5.844.466-7.852 1.398s-3.012 2.223-3.012 3.872c0 1.148.574 2.403 1.721 3.765 1.219 1.291 3.335 3.263 6.346 5.916zm-.107 36.788c6.884 0 12.693-1.076 17.425-3.227l-19.469-17.211-5.701 2.797c-6.526 3.155-9.788 6.418-9.788 9.788 0 2.223 1.434 4.088 4.302 5.594 2.94 1.506 7.351 2.259 13.231 2.259z"/><path d="m289.774 101.291c8.821 0 16.063 2.079 21.728 6.239 5.665 4.159 8.498 10.362 8.498 18.608 0 8.247-2.725 14.307-8.175 18.179-5.45 3.801-12.8 5.701-22.051 5.701h-31.839v26.568h-19.577v-75.295h19.577zm-.968 33.668c3.586 0 6.418-.753 8.498-2.259 2.079-1.506 3.119-3.693 3.119-6.562 0-2.94-1.04-5.127-3.119-6.561-2.08-1.506-4.912-2.259-8.498-2.259h-30.871v17.641z"/><path d="m90.462 220.15c9.968 0 18.035 2.223 24.202 6.669s9.251 10.721 9.251 18.824c0 8.749-3.586 15.418-10.757 20.008-7.171 4.589-16.6006 6.884-28.2894 6.884-10.398 0-19.1825-1.865-26.3535-5.594-7.0993-3.8-11.4019-9.322-12.9078-16.565l18.8239-1.075c1.2191 2.653 3.6213 4.625 7.2069 5.916 3.6572 1.219 7.8522 1.828 12.5851 1.828 6.3105 0 11.3661-1.004 15.1667-3.012 3.8011-2.079 5.7011-4.876 5.7011-8.39 0-3.585-1.9-6.382-5.7011-8.39-3.8006-2.008-8.7128-3.012-14.7364-3.012-8.8921 0-15.5253 1.937-19.8996 5.809l-16.6726-1.506 4.3026-42.596h15.2742 50.3409v15.49h-51.9543l-1.8286 17.102c6.3105-5.593 15.0591-8.39 26.2459-8.39z"/><path d="m146.935 262.101c-7.386-6.956-11.079-16.458-11.079-28.505s3.693-21.549 11.079-28.505c7.387-6.956 17.247-10.434 29.581-10.434 12.406 0 22.266 3.478 29.58 10.434 7.386 6.956 11.08 16.458 11.08 28.505s-3.694 21.549-11.08 28.505c-7.314 6.956-17.174 10.434-29.58 10.434-12.334 0-22.194-3.478-29.581-10.434zm13.769-45.715c-3.944 4.087-5.916 9.824-5.916 17.21s1.972 13.159 5.916 17.318c3.944 4.088 9.215 6.131 15.812 6.131 6.669 0 11.976-2.043 15.92-6.131 3.944-4.159 5.916-9.932 5.916-17.318s-1.972-13.123-5.916-17.21c-3.944-4.16-9.251-6.239-15.92-6.239-6.597 0-11.868 2.079-15.812 6.239z"/><path d="m241.946 262.101c-7.386-6.956-11.079-16.458-11.079-28.505s3.693-21.549 11.079-28.505 17.246-10.434 29.58-10.434c12.406 0 22.266 3.478 29.581 10.434 7.386 6.956 11.079 16.458 11.079 28.505s-3.693 21.549-11.079 28.505c-7.315 6.956-17.175 10.434-29.581 10.434-12.334 0-22.194-3.478-29.58-10.434zm13.768-45.715c-3.944 4.087-5.916 9.824-5.916 17.21s1.972 13.159 5.916 17.318c3.944 4.088 9.215 6.131 15.812 6.131 6.669 0 11.976-2.043 15.92-6.131 3.944-4.159 5.916-9.932 5.916-17.318s-1.972-13.123-5.916-17.21c-3.944-4.16-9.251-6.239-15.92-6.239-6.597 0-11.868 2.079-15.812 6.239z"/></g></svg>